<?xml version="1.0" encoding="utf-8"?>
<!-- Generator: Adobe Illustrator 24.3.0, SVG Export Plug-In . SVG Version: 6.00 Build 0)  -->
<svg version="1.1" id="레이어_1" xmlns="http://www.w3.org/2000/svg" xmlns:xlink="http://www.w3.org/1999/xlink" x="0px"
	 y="0px" viewBox="0 0 489.4 127" style="enable-background:new 0 0 489.4 127;" xml:space="preserve">
<style type="text/css">
	.st0{fill:#818181;}
</style>
<g>
	<path class="st0" d="M289.8,92.5c6.4,0,11.5-4.6,11.5-10.2c0-5.7-5.1-10.2-11.5-10.2c-6.4,0-11.5,4.6-11.5,10.2
		C278.3,87.9,283.4,92.5,289.8,92.5z M289.8,76.8c2.6,0,4.7,2.5,4.7,5.4c0,2.9-2.1,5.4-4.7,5.4c-2.6,0-4.7-2.5-4.7-5.4
		C285.1,79.3,287.2,76.8,289.8,76.8z M299.8,107h11v4.1h6.9V76c0-1.9-1.5-3.5-3.5-3.5h-3.5v29.7h-11V107z M256.5,109.1h3.4
		c1.9,0,3.4-1.5,3.4-3.4V77.3c0-1-0.6-1.6-1.7-1.6h-34.6v4.8h29.4V109.1z M292.2,117.8v-9h-6.9v12.2c0,1,0.6,1.7,1.7,1.7h28.9
		c1.3,0,2.4-1.1,2.4-2.4v-2.4H292.2z M251.7,97.8c0-1.9-1.5-3.4-3.4-3.4h-3.4v21.1h-4.2V97.8c0-1.9-1.5-3.4-3.4-3.4h-3.4v21.1h-10.9
		v4.8h42c1.3,0,2.4-1.1,2.4-2.4v-2.4h-15.6V97.8z M292.1,106.3v-7.2h15.5v-4.8h-33.9v4.8h11.4v7.2H292.1z"/>
	<path class="st0" d="M415.6,122.5h3.2c1.9,0,3.4-1.5,3.4-3.4V72.5h-6.6V122.5z"/>
	<path class="st0" d="M369,91.9V72.6h-6.8v50h3.4c1.9,0,3.4-1.5,3.4-3.4V97.5h7.5v-5.6H369z"/>
	<path class="st0" d="M351.1,74.8h-20.6v4.8h16.9v9.2h-17.4v18.5c0,0.9,0.8,1.7,1.7,1.7h24.5c0.9,0,1.6-0.8,1.6-1.7v-3.1h-20.9V93.6
		h17.4V77.7C354,76.1,352.7,74.8,351.1,74.8z"/>
	<path class="st0" d="M429,110.4v4.8h44.1c1.3,0,2.4-1.1,2.4-2.4v-2.4H429z"/>
	<path class="st0" d="M394.8,74.9L394.8,74.9c-7.9,0-14.4,6.3-14.4,14c0,7.6,6.5,13.9,14.3,13.9h0c7.8,0,14.3-6.3,14.3-13.9
		C409.1,81.2,402.6,74.9,394.8,74.9z M394.7,98c-4.2,0-7.5-3.8-7.5-9.1c0-5.3,3.3-9.2,7.5-9.2c4.3,0,7.5,3.9,7.5,9.2
		C402.2,94.1,399,98,394.7,98z"/>
	<path class="st0" d="M440.6,79.6v18.1h-6.1v4.9h35.3v-4.9h-6.1V79.6h5.9v-3.2c0-0.9-0.7-1.6-1.6-1.6h-33.1v4.9H440.6z M447.1,79.6
		h10.1v18.1h-10.1V79.6z"/>
	<g>
		<path class="st0" d="M61.5,103c-0.7-2.3-8.8-30.6-8.8-30.6h-8.4c0,0-8.1,28.3-8.8,30.6c-0.5-2.3-7.1-30.6-7.1-30.6H18.2l11.6,50.2
			h9.6c0,0,8.3-29,8.9-31.1c0.6,2.1,9,31.1,9,31.1h9.8l11.6-50.2H68.6C68.6,72.5,62,100.7,61.5,103z M179.7,72.5c0,0,0,29.7,0,31.8
			c-1.2-1.7-21.3-31.8-21.3-31.8h-9.7v50.2H159c0,0,0-29.7,0-31.7c1.2,1.7,21.4,31.7,21.4,31.7h9.5V72.5H179.7z M60.3,21.8
			C59.8,21,48.4,4.4,48.4,4.4H28.1c0,0-16.7,17-17.8,18.1c0-1.5,0-18.1,0-18.1H0v50.2h10.3c0,0,0-18.7,0-20.2
			c1.1,1.1,19.8,20.2,19.8,20.2h12.3c0,0-23.9-25.8-24.3-26.3c0.3-0.4,15.1-15.9,20.5-21.7c4.1,6.6,16.4,26.2,16.5,26.3
			c0,0.2,0,21.7,0,21.7h10.3c0,0,0-21.5,0-21.7c0.1-0.2,17.8-28.5,17.8-28.5H72.2C72.2,4.4,60.8,21,60.3,21.8z"/>
		<path class="st0" d="M111.3,0C95,0,81.8,13.2,81.8,29.5c0,12.9,8.3,23.8,19.8,27.8c2.1-3.2,5.6-5.3,9.7-5.3c4.1,0,7.6,2.1,9.7,5.3
			c11.5-4,19.8-15,19.8-27.8C140.7,13.2,127.5,0,111.3,0z M111.3,47.3c-9.8,0-17.8-8-17.8-17.8c0-9.8,8-17.8,17.8-17.8
			c9.8,0,17.8,8,17.8,17.8C129.1,39.3,121.1,47.3,111.3,47.3z"/>
		<path class="st0" d="M121,69.7c-2.1,3.2-5.6,5.3-9.7,5.3c-4.1,0-7.6-2.1-9.7-5.3c-11.5,4-19.8,15-19.8,27.8
			c0,16.3,13.2,29.5,29.5,29.5c16.2,0,29.5-13.2,29.5-29.5C140.7,84.7,132.5,73.7,121,69.7z M111.3,115.3c-9.8,0-17.8-8-17.8-17.8
			c0-9.8,8-17.8,17.8-17.8c9.8,0,17.8,8,17.8,17.8C129.1,107.4,121.1,115.3,111.3,115.3z"/>
	</g>
</g>
</svg>
