<?xml version="1.0" encoding="utf-8"?>
<!-- Generator: Adobe Illustrator 23.1.0, SVG Export Plug-In . SVG Version: 6.00 Build 0)  -->
<svg version="1.1" id="ico_wz02" xmlns="http://www.w3.org/2000/svg" xmlns:xlink="http://www.w3.org/1999/xlink" x="0px" y="0px"
	 width="77px" height="71.3px" viewBox="0 0 77 71.3" style="enable-background:new 0 0 77 71.3;" xml:space="preserve">
<style type="text/css">
	.st0{fill-rule:evenodd;clip-rule:evenodd;fill:#333333;}
	.st1{fill:#FF6600;}
</style>
<path id="Shape_8_copy_2" class="st0" d="M43.3,64c-0.5-0.5-1.3-0.5-1.8,0c-0.5,0.5-0.5,1.3,0,1.8l5.1,5.1c0.5,0.5,1.3,0.5,1.8,0
	c0.5-0.5,0.5-1.3,0-1.8L43.3,64z M38.5,56.9c-0.7,0-1.3,0.6-1.3,1.3c0,0,0,0,0,0v2.4l-8.6,8.6c-0.5,0.5-0.5,1.3,0,1.8
	c0.5,0.5,1.3,0.5,1.8,0l9-9c0.2-0.2,0.4-0.6,0.4-0.9v-2.9C39.8,57.5,39.2,56.9,38.5,56.9z M75.7,2.6H39.8V1.3c0-0.7-0.6-1.3-1.3-1.3
	s-1.3,0.6-1.3,1.3l0,0v1.3H1.3C0.6,2.6,0,3.1,0,3.8c0,0,0,0,0,0V9c0,0.7,0.6,1.3,1.3,1.3c0,0,0,0,0,0H68c0.7,0,1.3-0.6,1.3-1.3
	c0-0.7-0.6-1.3-1.3-1.3H2.6V5.1h71.9v2.6h-1.3c-0.7,0-1.3,0.6-1.3,1.3c0,0,0,0,0,0v41.8c0,2.1-1.7,3.8-3.8,3.8H9
	c-2.1,0-3.8-1.7-3.8-3.8V14.1c0-0.7-0.6-1.3-1.3-1.3c-0.7,0-1.3,0.6-1.3,1.3c0,0,0,0,0,0v36.6c0,3.5,2.9,6.4,6.4,6.4h59
	c3.5,0,6.4-2.9,6.4-6.4V10.3h1.3c0.7,0,1.3-0.6,1.3-1.3c0,0,0,0,0,0V3.8C77,3.1,76.4,2.6,75.7,2.6C75.7,2.6,75.7,2.6,75.7,2.6
	L75.7,2.6z"/>
<g>
	<g>
		<path class="st1" d="M57.1,34.2c0.7,0,1.3-0.6,1.3-1.3c0-0.7-0.6-1.3-1.3-1.3h-6.3c-0.7,0-1.3,0.6-1.3,1.3c0,0.7,0.6,1.3,1.3,1.3
			H57.1z M61.6,23.9H50.2c-0.7,0-1.3,0.6-1.3,1.3c0,0.7,0.6,1.3,1.3,1.3h11.4c0.7,0,1.3-0.6,1.3-1.3C62.9,24.5,62.3,23.9,61.6,23.9z
			 M57.2,39.3h-6.8c-0.7,0-1.3,0.6-1.3,1.3c0,0.7,0.6,1.3,1.3,1.3h6.8c0.7,0,1.3-0.6,1.3-1.3C58.5,39.9,57.9,39.3,57.2,39.3z
			 M30.6,18.9c-7.4,0-13.5,6.1-13.5,13.5c0,7.5,6.1,13.5,13.5,13.5s13.5-6.1,13.5-13.5C44.1,25,38,18.9,30.6,18.9z M30.6,22.8
			c2.8,0,5,2.3,5,5c0,2.8-2.3,5-5,5c-2.8,0-5-2.3-5-5C25.6,25,27.8,22.8,30.6,22.8z M20.5,37.3c-0.7-1.5-1.1-3.1-1.1-4.9
			c0-4.4,2.5-8.2,6.2-10c-1.5,1.3-2.4,3.3-2.4,5.4c0,2.4,1.1,4.4,2.8,5.8C24,34.3,22.1,35.6,20.5,37.3z M30.6,43.6
			c-3.6,0-6.7-1.7-8.8-4.3c2.1-2.7,5.3-4.2,8.8-4.2c3.4,0,6.7,1.6,8.8,4.2C37.3,41.9,34.2,43.6,30.6,43.6z M40.7,37.3
			c-1.5-1.7-3.4-3-5.6-3.7c1.7-1.3,2.8-3.4,2.8-5.8c0-2.1-0.9-4.1-2.4-5.4c3.7,1.8,6.2,5.6,6.2,10C41.8,34.2,41.4,35.8,40.7,37.3z"
			/>
	</g>
</g>
</svg>
