<?xml version="1.0" encoding="utf-8"?>
<!-- Generator: Adobe Illustrator 27.3.1, SVG Export Plug-In . SVG Version: 6.00 Build 0)  -->
<svg version="1.1" id="레이어_1" xmlns="http://www.w3.org/2000/svg" xmlns:xlink="http://www.w3.org/1999/xlink" x="0px"
	 y="0px" viewBox="0 0 59.2 72" style="enable-background:new 0 0 59.2 72;" xml:space="preserve">
<style type="text/css">
	.st0{fill:none;stroke:#212222;stroke-width:4;stroke-miterlimit:10;}
	.st1{fill:none;stroke:#212222;stroke-width:4;stroke-linecap:round;stroke-miterlimit:10;}
	.st2{fill:none;stroke:#212222;stroke-width:4;stroke-linecap:round;stroke-linejoin:round;stroke-miterlimit:10;}
	.st3{fill:none;stroke:#F39517;stroke-width:4;stroke-linecap:round;stroke-linejoin:round;stroke-miterlimit:10;}
</style>
<g>
	<path class="st0" d="M44.9,35.9V19.8c0-5.9-4.8-10.7-10.7-10.7h-0.9"/>
	<path class="st0" d="M44.9,44.4v11.2c0,5.9-4.8,10.7-10.7,10.7H12.8c-5.9,0-10.7-4.8-10.7-10.7V19.8c0-5.9,4.8-10.7,10.7-10.7h0.6"
		/>
	<g>
		<line class="st1" x1="19.9" y1="25.6" x2="34.3" y2="25.6"/>
		<line class="st1" x1="19.9" y1="39.5" x2="34.3" y2="39.5"/>
		<line class="st1" x1="19.9" y1="53.1" x2="27.1" y2="53.1"/>
	</g>
	<polyline class="st2" points="8.5,25.3 11.2,27.1 14.5,22.8 	"/>
	<polyline class="st2" points="8.5,39.1 11.2,40.9 14.5,36.6 	"/>
	<polygon class="st3" points="41.5,47.9 57.1,32.4 52.9,28.1 37.3,43.7 32.9,52.1 	"/>
	<path class="st0" d="M32.3,12.1H14.7c-1.1,0-2-0.9-2-2V7.6c0-1.1,0.9-2,2-2h17.5c1.1,0,2,0.9,2,2v2.5
		C34.2,11.2,33.3,12.1,32.3,12.1z"/>
</g>
</svg>
