<svg id="ico_wz03" xmlns="http://www.w3.org/2000/svg" width="72.88" height="70.94" viewBox="0 0 72.88 70.94">
  <metadata><?xpacket begin="﻿" id="W5M0MpCehiHzreSzNTczkc9d"?>
<x:xmpmeta xmlns:x="adobe:ns:meta/" x:xmptk="Adobe XMP Core 5.6-c138 79.159824, 2016/09/14-01:09:01        ">
   <rdf:RDF xmlns:rdf="http://www.w3.org/1999/02/22-rdf-syntax-ns#">
      <rdf:Description rdf:about=""/>
   </rdf:RDF>
</x:xmpmeta>
                                                                                                    
                                                                                                    
                                                                                                    
                                                                                                    
                                                                                                    
                                                                                                    
                                                                                                    
                                                                                                    
                                                                                                    
                                                                                                    
                                                                                                    
                                                                                                    
                                                                                                    
                                                                                                    
                                                                                                    
                                                                                                    
                                                                                                    
                                                                                                    
                                                                                                    
                                                                                                    
                           
<?xpacket end="w"?></metadata>
<defs>
    <style>
      .cls-1 {
        fill: #333;
      }

      .cls-1, .cls-2 {
        fill-rule: evenodd;
      }

      .cls-2 {
        fill: #f60;
      }
    </style>
  </defs>
  <path class="cls-1" d="M1424.07,1797.53a1.309,1.309,0,0,0,.25,1.84l25.84,18.97a8.473,8.473,0,0,0,4.78,2.01,8.685,8.685,0,0,0,4.79-1.91l25.95-19.07a1.313,1.313,0,0,0-1.59-2.09l-3.13,2.39v-23.68a6.64,6.64,0,0,0-6.56-6.55h-38.8a6.647,6.647,0,0,0-6.56,6.55v23.68l-3.13-2.39A1.318,1.318,0,0,0,1424.07,1797.53Zm7.6-21.54a4.031,4.031,0,0,1,3.93-3.93h38.8a4.031,4.031,0,0,1,3.93,3.93v25.68l-20.22,14.71a6.188,6.188,0,0,1-3.17,1.35,5.971,5.971,0,0,1-3.13-1.43l-20.14-14.64v-25.67Zm55.26,10.76-1.31-.88a1.312,1.312,0,0,0-1.46,2.18l1.35,0.91a7.606,7.606,0,0,1,3.31,6.74v38.11a3.893,3.893,0,0,1-3.93,3.93h-59.78a3.893,3.893,0,0,1-3.93-3.93V1795.7c0-2.37,1.02-5.38,3.35-6.77l1.31-.88a1.312,1.312,0,1,0-1.46-2.18l-1.25.84c-2.78,1.66-4.57,5.19-4.57,8.99v38.11a6.484,6.484,0,0,0,6.55,6.55h59.78a6.484,6.484,0,0,0,6.55-6.55V1795.7C1491.44,1791.78,1489.78,1788.5,1486.93,1786.75Zm-45.29,30.95-14.34,12.46a1.306,1.306,0,0,0-.22,1.84,1.311,1.311,0,0,0,1.84.22l14.34-12.46A1.31,1.31,0,1,0,1441.64,1817.7Zm27.67,0a1.31,1.31,0,0,0-1.62,2.06l13.39,13.46a1.311,1.311,0,0,0,1.84-.22,1.306,1.306,0,0,0-.22-1.84Z" transform="translate(-1418.56 -1769.44)"/>
  <path id="Shape_19_copy" data-name="Shape 19 copy" class="cls-2" d="M1448.13,1804.9a1.2,1.2,0,0,1,0-2.4h13.73a1.2,1.2,0,0,1,0,2.4h-13.73Zm8.87-25.66,2.51,4.09,4.71,1.14a2.323,2.323,0,0,1,1.7,2.79,2.337,2.337,0,0,1-.49.95l-3.14,3.69,0.37,4.85a2.178,2.178,0,0,1-.23,1.19,2.344,2.344,0,0,1-.78.9,2.378,2.378,0,0,1-1.12.38,2.207,2.207,0,0,1-1.17-.22l-4.36-1.8-4.49,1.85a2.134,2.134,0,0,1-1.04.17,2.348,2.348,0,0,1-1.19-.43,2.276,2.276,0,0,1-.78-1,2.157,2.157,0,0,1-.17-1.04l0.37-4.85-3.14-3.69a2.3,2.3,0,0,1-.51-1.04,2.4,2.4,0,0,1,.09-1.22,2.267,2.267,0,0,1,.68-1,2.437,2.437,0,0,1,1.09-.51l4.57-1.11,2.54-4.14a2.293,2.293,0,0,1,.8-0.78,2.323,2.323,0,0,1,1.2-.32,2.306,2.306,0,0,1,1.98,1.15h0Zm0.72,5.76-2.72-4.45-2.69,4.38a1.235,1.235,0,0,1-.78.61l-5.07,1.22,3.34,3.92a1.183,1.183,0,0,1,.33.91l-0.41,5.2,4.82-1.99a1.243,1.243,0,0,1,.91,0l4.82,1.99-0.4-5.16a1.226,1.226,0,0,1,.28-0.91l3.38-3.96-5.02-1.21a1.212,1.212,0,0,1-.79-0.55h0Z" transform="translate(-1418.56 -1769.44)"/>
</svg>
