<?xml version="1.0" encoding="utf-8"?>
<!-- Generator: Adobe Illustrator 24.3.0, SVG Export Plug-In . SVG Version: 6.00 Build 0)  -->
<svg version="1.1" id="레이어_1" xmlns="http://www.w3.org/2000/svg" xmlns:xlink="http://www.w3.org/1999/xlink" x="0px"
	 y="0px" viewBox="0 0 66.2 72.2" style="enable-background:new 0 0 66.2 72.2;" xml:space="preserve">
<style type="text/css">
	.st0{fill:#FD9800;}
	.st1{fill:#222222;}
	.st2{fill:none;stroke:#222222;stroke-width:4;stroke-linecap:round;stroke-linejoin:round;stroke-miterlimit:10;}
</style>
<g>
	<g>
		<path class="st0" d="M13.4,68.4c-0.9,0-1.7-0.8-1.7-1.7v-23c0-0.9,0.8-1.7,1.7-1.7c0.9,0,1.7,0.8,1.7,1.7v23
			C15.1,67.7,14.3,68.4,13.4,68.4z"/>
		<path class="st0" d="M13.4,56c-0.6,0-1.2-0.3-1.5-0.9c-0.4-0.8-0.1-1.8,0.7-2.3l4.4-2.4c0.8-0.4,1.8-0.1,2.3,0.7s0.1,1.8-0.7,2.3
			l-4.4,2.4C14,55.9,13.7,56,13.4,56z"/>
		<path class="st0" d="M13.4,49.5c-0.3,0-0.6-0.1-0.9-0.3l-3.1-1.9c-0.8-0.5-1-1.5-0.5-2.3c0.5-0.8,1.5-1,2.3-0.5l2.2,1.4l2.5-1.4
			c0.8-0.5,1.8-0.2,2.3,0.6c0.5,0.8,0.2,1.8-0.6,2.3l-3.4,1.9C14,49.5,13.7,49.5,13.4,49.5z"/>
		<path class="st0" d="M13.4,56c-0.2,0-0.5,0-0.7-0.1L8,53.8c-0.9-0.4-1.2-1.4-0.9-2.2c0.4-0.8,1.4-1.2,2.2-0.9l4.7,2.1
			c0.9,0.4,1.2,1.4,0.9,2.2C14.7,55.6,14.1,56,13.4,56z"/>
	</g>
	<path class="st1" d="M56.5,69.6c-1.1,0-1.9-0.9-1.9-1.9v-55H23.8v20.5c0,1.1-0.9,1.9-1.9,1.9S20,34.3,20,33.2V10.8
		c0-1.1,0.9-1.9,1.9-1.9h34.6c1.1,0,1.9,0.9,1.9,1.9v56.9C58.4,68.7,57.5,69.6,56.5,69.6z"/>
	<path class="st1" d="M21.9,69.6c-1.1,0-1.9-0.9-1.9-1.9v-3.4c0-1.1,0.9-1.9,1.9-1.9s1.9,0.9,1.9,1.9v3.4
		C23.8,68.7,23,69.6,21.9,69.6z"/>
	<path class="st1" d="M42.4,69.6c-1.1,0-1.9-0.9-1.9-1.9v-7.9h-3.4v7.9c0,1.1-0.9,1.9-1.9,1.9s-1.9-0.9-1.9-1.9v-9.8
		c0-1.1,0.9-1.9,1.9-1.9h7.3c1.1,0,1.9,0.9,1.9,1.9v9.8C44.4,68.7,43.5,69.6,42.4,69.6z"/>
	<path class="st1" d="M64.3,69.6H4.4c-1.1,0-1.9-0.9-1.9-1.9s0.9-1.9,1.9-1.9h59.9c1.1,0,1.9,0.9,1.9,1.9S65.3,69.6,64.3,69.6z"/>
	<path class="st0" d="M18.5,62.3c-2.3,0-4.2-0.9-5.7-2.7c-1.3,0.7-3,1.2-4.5,1.2C3.7,60.8,0,57,0,52.5c0-2.8,1.5-5.4,3.7-6.9
		C3.3,44.7,3,43.8,3,42.8c0-3.2,2.5-5.7,5.6-5.9c0.3-2.7,2.6-4.8,5.4-4.8c3,0,5.4,2.4,5.4,5.4c0,0.3,0,0.6-0.1,1
		c2.6,0.9,4.5,3.3,4.5,6.3c0,1.1-0.2,2.1-0.7,3c2,1.5,3.3,3.8,3.3,6.5C26.5,58.7,22.9,62.3,18.5,62.3z M13.2,55.5c0.1,0,0.2,0,0.3,0
		c0.5,0.1,1,0.4,1.2,0.9c0.9,1.6,2.1,2.5,3.7,2.5c2.6,0,4.7-2.1,4.7-4.7c0-1.9-1.2-3.6-3-4.3c-0.5-0.2-0.9-0.7-1-1.2
		c-0.1-0.6,0.1-1.1,0.5-1.5c0.6-0.6,1-1.4,1-2.3c0-1.8-1.4-3.2-3.2-3.2c-0.1,0-0.1,0-0.2,0c-0.7,0-1.3-0.3-1.6-0.9
		c-0.3-0.6-0.3-1.3,0.1-1.8c0.2-0.3,0.5-0.7,0.5-1.3c0-1.1-0.9-2.1-2.1-2.1S12,36.4,12,37.6c0,0.2,0,0.5,0.1,0.7
		c0.2,0.6,0.1,1.3-0.4,1.8c-0.5,0.5-1.2,0.6-1.8,0.3c-0.3-0.1-0.6-0.2-1-0.2c-1.4,0-2.5,1.1-2.5,2.5c0,0.8,0.4,1.6,1,2
		c0.5,0.4,0.8,1,0.7,1.7s-0.6,1.1-1.2,1.3c-2.1,0.6-3.6,2.5-3.6,4.7c0,2.7,2.2,4.9,4.9,4.9c1.4,0,3-0.6,3.8-1.4
		C12.4,55.7,12.8,55.5,13.2,55.5z"/>
	<path class="st1" d="M46.3,12.7c-1.1,0-1.9-0.9-1.9-1.9V6.5H34v4.3c0,1.1-0.9,1.9-1.9,1.9c-1.1,0-1.9-0.9-1.9-1.9V4.5
		c0-1.1,0.9-1.9,1.9-1.9h14.2c1.1,0,1.9,0.9,1.9,1.9v6.2C48.2,11.8,47.4,12.7,46.3,12.7z"/>
	<path class="st2" d="M39.2,4.5"/>
	<rect x="27.7" y="27.6" class="st1" width="4.6" height="5.5"/>
	<rect x="36.9" y="27.6" class="st1" width="4.6" height="5.5"/>
	<rect x="46.1" y="27.6" class="st1" width="4.6" height="5.5"/>
	<rect x="27.7" y="37.6" class="st1" width="4.6" height="5.5"/>
	<rect x="36.9" y="37.6" class="st1" width="4.6" height="5.5"/>
	<rect x="46.1" y="37.6" class="st1" width="4.6" height="5.5"/>
	<rect x="27.7" y="47.6" class="st1" width="4.6" height="5.5"/>
	<rect x="36.9" y="47.6" class="st1" width="4.6" height="5.5"/>
	<rect x="46.1" y="47.6" class="st1" width="4.6" height="5.5"/>
	<rect x="36.9" y="17.7" class="st1" width="4.6" height="5.5"/>
	<rect x="27.7" y="17.7" class="st1" width="4.6" height="5.5"/>
	<rect x="46.1" y="17.7" class="st1" width="4.6" height="5.5"/>
</g>
</svg>
