<svg id="ico_wz01" xmlns="http://www.w3.org/2000/svg" width="73.38" height="70.5" viewBox="0 0 73.38 70.5">
  <metadata><?xpacket begin="﻿" id="W5M0MpCehiHzreSzNTczkc9d"?>
<x:xmpmeta xmlns:x="adobe:ns:meta/" x:xmptk="Adobe XMP Core 5.6-c138 79.159824, 2016/09/14-01:09:01        ">
   <rdf:RDF xmlns:rdf="http://www.w3.org/1999/02/22-rdf-syntax-ns#">
      <rdf:Description rdf:about=""/>
   </rdf:RDF>
</x:xmpmeta>
                                                                                                    
                                                                                                    
                                                                                                    
                                                                                                    
                                                                                                    
                                                                                                    
                                                                                                    
                                                                                                    
                                                                                                    
                                                                                                    
                                                                                                    
                                                                                                    
                                                                                                    
                                                                                                    
                                                                                                    
                                                                                                    
                                                                                                    
                                                                                                    
                                                                                                    
                                                                                                    
                           
<?xpacket end="w"?></metadata>
<defs>
    <style>
      .cls-1 {
        fill: #2e2d2d;
      }

      .cls-1, .cls-2 {
        fill-rule: evenodd;
      }

      .cls-2 {
        fill: #f60;
      }
    </style>
  </defs>
  <path class="cls-1" d="M1049.99,1802.61a1.293,1.293,0,0,0,1.29,1.29h5.83a1.272,1.272,0,0,0,.9-0.38l8.09-8.08,2.94,2.94a1.274,1.274,0,0,0,1.82,0l3.64-5.51,5.51,5.51a1.283,1.283,0,0,0,1.82-1.81l-6.43-6.43a1.28,1.28,0,0,0-1.81,0l-3.64,5.52-2.94-2.95a1.292,1.292,0,0,0-1.82,0l-8.62,8.62h-4.01v-15.42h32.21v15.42h-19.96a1.285,1.285,0,0,0,0,2.57h21.25a1.285,1.285,0,0,0,1.28-1.29v-17.98a1.285,1.285,0,0,0-1.28-1.29h-34.78a1.293,1.293,0,0,0-1.29,1.29v17.98h0Zm24.85,36.57h-35.47c-5.71,0-8.99-3.28-8.99-8.99v-42.24a3.858,3.858,0,0,1,3.85-3.85,1.285,1.285,0,1,0,0-2.57,6.427,6.427,0,0,0-6.42,6.42v42.24c0,7.13,4.43,11.56,11.56,11.56h35.47A1.285,1.285,0,1,0,1074.84,1839.18Zm-19.71-48.13a2.57,2.57,0,1,0,2.57-2.57A2.569,2.569,0,0,0,1055.13,1791.05Zm37.7-19.8h-48.32a6.506,6.506,0,0,0-6.42,6.42v55.09a1.285,1.285,0,0,0,2.57,0v-55.09a3.952,3.952,0,0,1,3.85-3.85h48.32a3.858,3.858,0,0,1,3.85,3.85v37.1a1.285,1.285,0,1,0,2.57,0v-37.1A6.427,6.427,0,0,0,1092.83,1771.25Zm-41.55,42.24h10.97a1.285,1.285,0,0,0,0-2.57h-10.97A1.285,1.285,0,1,0,1051.28,1813.49Zm0,15.41h5.83a1.285,1.285,0,0,0,0-2.57h-5.83A1.285,1.285,0,1,0,1051.28,1828.9Zm0-7.7h5.83a1.285,1.285,0,0,0,0-2.57h-5.83A1.285,1.285,0,1,0,1051.28,1821.2Z" transform="translate(-1027.81 -1771.25)"/>
  <path id="Shape_5_copy_2" data-name="Shape 5 copy 2" class="cls-2" d="M1082.46,1812.2v2.57a1.28,1.28,0,1,0,2.56,0v-2.57A1.28,1.28,0,0,0,1082.46,1812.2Zm6.42-3.85a1.285,1.285,0,0,0-1.29,1.28v5.14a1.285,1.285,0,1,0,2.57,0v-5.14A1.276,1.276,0,0,0,1088.88,1808.35Zm11.03,10.28H1066.5a1.276,1.276,0,0,0-1.28,1.28v5.14a6.209,6.209,0,0,0,6.42,6.42h2.27a14.121,14.121,0,0,0,27.28-5.14v-6.42A1.282,1.282,0,0,0,1099.91,1818.63Zm-28.27,10.27a3.648,3.648,0,0,1-3.85-3.85v-3.85h5.14v5.13a14.448,14.448,0,0,0,.24,2.57h-1.53Zm26.98-2.57a11.56,11.56,0,1,1-23.12,0v-5.13h23.12v5.13Z" transform="translate(-1027.81 -1771.25)"/>
</svg>
